<?xml version="1.0" encoding="utf-8"?>
<!-- Generator: Adobe Illustrator 16.0.0, SVG Export Plug-In . SVG Version: 6.00 Build 0)  -->
<!DOCTYPE svg PUBLIC "-//W3C//DTD SVG 1.1//EN" "http://www.w3.org/Graphics/SVG/1.1/DTD/svg11.dtd">
<svg version="1.1" id="Layer_1" xmlns="http://www.w3.org/2000/svg" xmlns:xlink="http://www.w3.org/1999/xlink" x="0px" y="0px"
	 width="126.372px" height="30px" viewBox="0 0 126.372 30" enable-background="new 0 0 126.372 30" xml:space="preserve">
<g>
	<path fill="#24B8EB" d="M19.298,22.751h-4.725l-1.369-4.758H6.359l-1.356,4.758H0.305L7.312,1.364h5.141L19.298,22.751z
		 M12.211,14.295l-2.067-7.188c-0.152-0.537-0.26-1.178-0.322-1.924H9.714C9.669,5.809,9.558,6.431,9.379,7.046l-2.094,7.249H12.211
		z"/>
	<path fill="#24B8EB" d="M25.58,20.976h-0.054v8.8h-4.242V7.479h4.242v2.297h0.054c1.047-1.78,2.519-2.67,4.416-2.67
		c1.78,0,3.156,0.678,4.127,2.035c0.971,1.357,1.456,3.205,1.456,5.541c0,2.545-0.566,4.588-1.698,6.129
		c-1.132,1.542-2.638,2.313-4.517,2.313C27.709,23.124,26.448,22.407,25.58,20.976z M25.459,14.712v1.224
		c0,1.054,0.25,1.914,0.752,2.58c0.501,0.666,1.159,0.999,1.973,0.999c0.966,0,1.716-0.415,2.248-1.245s0.799-2.007,0.799-3.527
		c0-2.685-0.94-4.026-2.819-4.026c-0.868,0-1.577,0.365-2.127,1.096S25.459,13.509,25.459,14.712z"/>
	<path fill="#24B8EB" d="M42.627,20.976h-0.054v8.8h-4.242V7.479h4.242v2.297h0.054c1.047-1.78,2.519-2.67,4.416-2.67
		c1.78,0,3.156,0.678,4.127,2.035c0.971,1.357,1.456,3.205,1.456,5.541c0,2.545-0.566,4.588-1.698,6.129
		c-1.132,1.542-2.638,2.313-4.517,2.313C44.756,23.124,43.495,22.407,42.627,20.976z M42.506,14.712v1.224
		c0,1.054,0.25,1.914,0.752,2.58c0.501,0.666,1.159,0.999,1.973,0.999c0.966,0,1.716-0.415,2.248-1.245s0.799-2.007,0.799-3.527
		c0-2.685-0.94-4.026-2.819-4.026c-0.868,0-1.577,0.365-2.127,1.096S42.506,13.509,42.506,14.712z"/>
	<path fill="#24B8EB" d="M54.479,22.349V18.53c0.698,0.467,1.394,0.815,2.087,1.044c0.693,0.229,1.349,0.343,1.966,0.343
		c0.752,0,1.344-0.113,1.778-0.343c0.434-0.229,0.651-0.577,0.651-1.044c0-0.299-0.099-0.547-0.295-0.746
		c-0.197-0.198-0.45-0.373-0.758-0.521c-0.309-0.149-0.646-0.283-1.014-0.402c-0.367-0.119-0.72-0.254-1.06-0.402
		c-0.546-0.229-1.027-0.476-1.443-0.738c-0.417-0.264-0.765-0.57-1.047-0.918c-0.282-0.348-0.497-0.75-0.644-1.208
		c-0.148-0.457-0.222-0.999-0.222-1.626c0-0.854,0.168-1.59,0.503-2.207c0.335-0.616,0.783-1.121,1.342-1.514
		s1.199-0.681,1.919-0.865c0.72-0.184,1.47-0.275,2.249-0.275c0.608,0,1.226,0.053,1.852,0.156c0.626,0.104,1.244,0.256,1.853,0.455
		v3.639c-0.537-0.348-1.112-0.608-1.725-0.783c-0.613-0.174-1.215-0.26-1.805-0.26c-0.277,0-0.539,0.027-0.785,0.082
		s-0.463,0.133-0.651,0.238c-0.188,0.104-0.336,0.238-0.443,0.402s-0.161,0.351-0.161,0.559c0,0.279,0.08,0.518,0.241,0.717
		s0.372,0.37,0.631,0.514c0.26,0.145,0.548,0.273,0.866,0.389c0.318,0.114,0.633,0.23,0.946,0.35
		c0.564,0.219,1.074,0.458,1.53,0.717c0.457,0.258,0.848,0.562,1.175,0.909c0.326,0.349,0.577,0.756,0.751,1.224
		c0.174,0.467,0.261,1.023,0.261,1.67c0,0.904-0.177,1.678-0.53,2.318c-0.354,0.643-0.823,1.164-1.409,1.566
		c-0.586,0.402-1.262,0.696-2.027,0.881c-0.765,0.184-1.56,0.275-2.383,0.275C57.168,23.124,55.768,22.865,54.479,22.349z"/>
	<path fill="#24B8EB" d="M80.921,22.751H76.68v-2.104h-0.054c-0.967,1.651-2.385,2.477-4.255,2.477
		c-1.718,0-3.101-0.674-4.147-2.021c-1.047-1.347-1.57-3.229-1.57-5.645c0-2.525,0.577-4.549,1.731-6.07s2.666-2.281,4.536-2.281
		c1.772,0,3.007,0.706,3.705,2.117h0.054V0.142h4.241V22.751z M76.76,15.323v-1.148c0-0.994-0.259-1.818-0.778-2.475
		c-0.519-0.656-1.194-0.984-2.026-0.984c-0.939,0-1.674,0.41-2.201,1.23c-0.528,0.82-0.792,1.945-0.792,3.377
		c0,1.343,0.255,2.377,0.765,3.103s1.217,1.089,2.121,1.089c0.858,0,1.559-0.383,2.101-1.148
		C76.49,17.601,76.76,16.587,76.76,15.323z"/>
	<path fill="#24B8EB" d="M96.84,16.458h-8.966c0.143,2.217,1.4,3.325,3.771,3.325c1.512,0,2.841-0.397,3.986-1.193v3.4
		c-1.271,0.756-2.922,1.134-4.953,1.134c-2.219,0-3.941-0.684-5.167-2.051c-1.227-1.367-1.839-3.273-1.839-5.72
		c0-2.535,0.662-4.544,1.986-6.024c1.324-1.482,2.953-2.223,4.886-2.223c2.004,0,3.555,0.661,4.65,1.983
		c1.097,1.322,1.645,3.117,1.645,5.384V16.458z M92.908,13.563c0-2.187-0.797-3.281-2.39-3.281c-0.68,0-1.268,0.314-1.765,0.94
		s-0.799,1.407-0.906,2.341H92.908z"/>
	<path fill="#24B8EB" d="M109.78,22.199c-0.958,0.616-2.34,0.925-4.147,0.925c-2.112,0-3.821-0.711-5.128-2.133
		s-1.959-3.256-1.959-5.504c0-2.594,0.699-4.641,2.101-6.137c1.4-1.496,3.272-2.244,5.617-2.244c1.619,0,2.792,0.238,3.517,0.716
		v3.997c-0.886-0.736-1.875-1.104-2.967-1.104c-1.217,0-2.181,0.395-2.893,1.186c-0.711,0.79-1.066,1.881-1.066,3.273
		c0,1.352,0.34,2.414,1.02,3.184c0.681,0.771,1.615,1.156,2.806,1.156c1.056,0,2.089-0.367,3.101-1.104V22.199z"/>
	<path fill="#24B8EB" d="M126.33,22.751h-5.087l-4.39-7.576h-0.054v7.576h-4.241V0.142h4.241v14.392h0.054l4.094-7.054h5.034
		l-4.927,7.174L126.33,22.751z"/>
</g>
</svg>
